<?xml version="1.0" encoding="utf-8"?>
<!-- Generator: Adobe Illustrator 20.0.0, SVG Export Plug-In . SVG Version: 6.00 Build 0)  -->
<svg version="1.1" id="Layer_1" xmlns="http://www.w3.org/2000/svg" xmlns:xlink="http://www.w3.org/1999/xlink" x="0px" y="0px"
	 viewBox="0 0 154 173.2" style="enable-background:new 0 0 154 173.2;" xml:space="preserve">
<style type="text/css">
	.st0{fill:#CCCCCC;}
	.st1{fill:#FFFFFF;}
</style>
<polygon class="st0" points="76.9,87.7 122.2,154.5 78,140.6 36.7,154.5 "/>
<path class="st1" d="M76.6,76.6l5.3,7.8l11.4,16.9c5.4-4.6,8.8-11.5,8.8-19.2c0-13.9-11.2-25.2-25.1-25.2
	c-13.9,0-25.1,11.3-25.1,25.2c0,8,3.7,15.1,9.5,19.7l10.3-17.2L76.6,76.6z"/>
<path class="st1" d="M43,132.3L53.5,115c-9-7.9-14.8-20.2-14.8-34c0-23.8,17.2-43.1,38.3-43.1s38.3,19.3,38.3,43.1
	c0,13.2-5.3,25-13.5,32.9l11.4,16.9c14.6-11.3,24.1-29.4,24.1-49.7c0-34.3-27-62.2-60.3-62.2c-33.3,0-60.3,27.8-60.3,62.2
	C16.7,102.3,27.1,121.1,43,132.3z"/>
<polygon class="st1" points="76.9,87.7 122.2,154.5 78,140.6 "/>
</svg>
